<svg width="640" height="120" viewBox="0 0 640 120" fill="none" xmlns="http://www.w3.org/2000/svg">
<path d="M99.0156 77.9609C99.0156 78.6901 98.8854 79.3672 98.625 79.9922C98.3646 80.6172 98 81.1641 97.5312 81.6328C97.0885 82.0755 96.5547 82.4271 95.9297 82.6875C95.3047 82.9479 94.6276 83.0781 93.8984 83.0781H57.2578C56.3203 83.0781 55.3047 82.974 54.2109 82.7656C53.1432 82.5312 52.0755 82.1797 51.0078 81.7109C49.9661 81.2422 48.9635 80.6432 48 79.9141C47.0365 79.1589 46.1771 78.2604 45.4219 77.2188C44.6927 76.151 44.1068 74.9271 43.6641 73.5469C43.2214 72.1406 43 70.5651 43 68.8203V41.3203C43 40.3828 43.1042 39.3802 43.3125 38.3125C43.5469 37.2188 43.8984 36.151 44.3672 35.1094C44.8359 34.0417 45.4479 33.026 46.2031 32.0625C46.9583 31.099 47.8568 30.2526 48.8984 29.5234C49.9661 28.7682 51.1901 28.1693 52.5703 27.7266C53.9505 27.2839 55.513 27.0625 57.2578 27.0625H98.5469V37.2188H57.2578C55.9297 37.2188 54.9141 37.5703 54.2109 38.2734C53.5078 38.9766 53.1562 40.0182 53.1562 41.3984V68.8203C53.1562 70.1224 53.5078 71.138 54.2109 71.8672C54.9401 72.5703 55.9557 72.9219 57.2578 72.9219H88.8594V60.1875H61.8281V49.9531H93.8984C94.6276 49.9531 95.3047 50.0964 95.9297 50.3828C96.5547 50.6432 97.0885 51.0078 97.5312 51.4766C98 51.9453 98.3646 52.4922 98.625 53.1172C98.8854 53.7161 99.0156 54.3672 99.0156 55.0703V77.9609Z" fill="white"/>
<path d="M118.781 32.1797H108.625V23H118.781V32.1797ZM118.781 83.0781H108.625V40.8516H118.781V83.0781Z" fill="white"/>
<path d="M175.109 68.8203C175.109 70.5651 174.888 72.1406 174.445 73.5469C174.003 74.9271 173.417 76.151 172.688 77.2188C171.958 78.2604 171.112 79.1589 170.148 79.9141C169.185 80.6432 168.169 81.2422 167.102 81.7109C166.06 82.1797 165.005 82.5312 163.938 82.7656C162.87 82.974 161.854 83.0781 160.891 83.0781H142.57V72.9219H160.891C162.245 72.9219 163.26 72.5703 163.938 71.8672C164.615 71.1641 164.953 70.1484 164.953 68.8203V55.1484C164.953 53.7422 164.602 52.7005 163.898 52.0234C163.221 51.3464 162.219 51.0078 160.891 51.0078H142.648C141.268 51.0078 140.227 51.3594 139.523 52.0625C138.82 52.7396 138.469 53.7422 138.469 55.0703V96.2812H128.312V55.0703C128.312 53.3255 128.534 51.763 128.977 50.3828C129.419 49.0026 130.005 47.7917 130.734 46.75C131.49 45.6823 132.349 44.7839 133.312 44.0547C134.276 43.2995 135.279 42.6875 136.32 42.2188C137.388 41.75 138.456 41.4115 139.523 41.2031C140.617 40.9688 141.633 40.8516 142.57 40.8516H160.891C162.635 40.8516 164.198 41.0729 165.578 41.5156C166.958 41.9583 168.169 42.5443 169.211 43.2734C170.279 44.0026 171.177 44.849 171.906 45.8125C172.661 46.776 173.273 47.7917 173.742 48.8594C174.211 49.901 174.549 50.9557 174.758 52.0234C174.992 53.0911 175.109 54.1068 175.109 55.0703V68.8203Z" fill="white"/>
<path d="M229.211 54.8359C229.211 56.2422 228.964 57.7656 228.469 59.4062C227.974 61.0208 227.167 62.5312 226.047 63.9375C224.953 65.3177 223.508 66.4766 221.711 67.4141C219.94 68.3516 217.779 68.8203 215.227 68.8203H196.906V59.1719H215.227C216.607 59.1719 217.674 58.7552 218.43 57.9219C219.185 57.0625 219.562 56.0078 219.562 54.7578C219.562 53.4297 219.133 52.388 218.273 51.6328C217.44 50.8776 216.424 50.5 215.227 50.5H196.906C195.526 50.5 194.458 50.9297 193.703 51.7891C192.948 52.6224 192.57 53.6641 192.57 54.9141V69.0938C192.57 70.4479 192.987 71.5026 193.82 72.2578C194.68 73.013 195.734 73.3906 196.984 73.3906H215.227V83.0781H196.906C195.5 83.0781 193.977 82.8307 192.336 82.3359C190.721 81.8411 189.211 81.0469 187.805 79.9531C186.424 78.8333 185.266 77.388 184.328 75.6172C183.391 73.8203 182.922 71.6458 182.922 69.0938V54.8359C182.922 53.4297 183.169 51.9193 183.664 50.3047C184.159 48.6641 184.953 47.1536 186.047 45.7734C187.167 44.3672 188.612 43.1953 190.383 42.2578C192.18 41.3203 194.354 40.8516 196.906 40.8516H215.227C216.633 40.8516 218.143 41.099 219.758 41.5938C221.398 42.0885 222.909 42.8958 224.289 44.0156C225.695 45.1094 226.867 46.5547 227.805 48.3516C228.742 50.1224 229.211 52.2839 229.211 54.8359Z" fill="white"/>
<path d="M273 51.0078H250.148C248.768 51.0078 247.727 51.3594 247.023 52.0625C246.32 52.7396 245.969 53.7422 245.969 55.0703V83.0781H235.812V55.0703C235.812 53.3255 236.034 51.763 236.477 50.3828C236.919 49.0026 237.505 47.7917 238.234 46.75C238.99 45.6823 239.849 44.7839 240.812 44.0547C241.776 43.2995 242.779 42.6875 243.82 42.2188C244.888 41.75 245.956 41.4115 247.023 41.2031C248.117 40.9688 249.133 40.8516 250.07 40.8516H273V51.0078Z" fill="white"/>
<path d="M403.625 45.8906C403.625 48.2083 403.339 50.2786 402.766 52.1016C402.193 53.9245 401.411 55.5391 400.422 56.9453C399.458 58.3255 398.339 59.5104 397.062 60.5C395.786 61.4896 394.445 62.3099 393.039 62.9609C391.659 63.5859 390.253 64.0417 388.82 64.3281C387.414 64.6146 386.086 64.7578 384.836 64.7578L406.047 83.0781H390.344L369.172 64.7578H361.867V54.6016H384.836C386.112 54.4974 387.271 54.237 388.312 53.8203C389.38 53.3776 390.292 52.7917 391.047 52.0625C391.828 51.3333 392.427 50.4609 392.844 49.4453C393.26 48.4036 393.469 47.2188 393.469 45.8906V39.4844C393.469 38.9115 393.391 38.4818 393.234 38.1953C393.104 37.8828 392.922 37.6615 392.688 37.5312C392.479 37.375 392.245 37.2839 391.984 37.2578C391.75 37.2318 391.529 37.2188 391.32 37.2188H357.805V83.0781H347.648V32.1797C347.648 31.4766 347.779 30.8125 348.039 30.1875C348.299 29.5625 348.651 29.0156 349.094 28.5469C349.562 28.0781 350.109 27.7135 350.734 27.4531C351.359 27.1927 352.036 27.0625 352.766 27.0625H391.32C393.586 27.0625 395.5 27.4792 397.062 28.3125C398.625 29.1198 399.888 30.1484 400.852 31.3984C401.841 32.6224 402.544 33.9505 402.961 35.3828C403.404 36.8151 403.625 38.1562 403.625 39.4062V45.8906Z" fill="white"/>
<path d="M459.875 60.1875H427.805V49.9531H459.875V60.1875ZM464.445 83.0781H427.805C426.398 83.0781 424.862 82.8307 423.195 82.3359C421.529 81.8411 419.979 81.0339 418.547 79.9141C417.141 78.7682 415.956 77.2969 414.992 75.5C414.055 73.6771 413.586 71.4505 413.586 68.8203V32.1797C413.586 31.4766 413.716 30.8125 413.977 30.1875C414.237 29.5625 414.589 29.0156 415.031 28.5469C415.5 28.0781 416.047 27.7135 416.672 27.4531C417.297 27.1927 417.974 27.0625 418.703 27.0625H464.445V37.2188H423.742V68.8203C423.742 70.1484 424.094 71.1641 424.797 71.8672C425.5 72.5703 426.529 72.9219 427.883 72.9219H464.445V83.0781Z" fill="white"/>
<path d="M530.266 78.7422C530.266 79.4714 530.122 80.1484 529.836 80.7734C529.576 81.3984 529.211 81.9453 528.742 82.4141C528.299 82.8568 527.766 83.2083 527.141 83.4688C526.516 83.7292 525.852 83.8594 525.148 83.8594C524.523 83.8594 523.885 83.7422 523.234 83.5078C522.609 83.2734 522.049 82.8958 521.555 82.375L484.445 43.625V83.0781H474.289V31.3984C474.289 30.3568 474.576 29.4193 475.148 28.5859C475.747 27.7266 476.503 27.0885 477.414 26.6719C478.378 26.2812 479.367 26.1901 480.383 26.3984C481.398 26.5807 482.271 27.0495 483 27.8047L520.109 66.5156V27.0625H530.266V78.7422Z" fill="white"/>
<path fill-rule="evenodd" clip-rule="evenodd" d="M279.797 64.0781V55.0703C279.797 50.9818 280.5 47.2188 281.906 43.7812C283.312 40.3438 285.266 37.388 287.766 34.9141C290.266 32.4401 293.221 30.513 296.633 29.1328C300.044 27.7526 303.768 27.0625 307.805 27.0625H330.695C331.398 27.0625 332.062 27.1927 332.688 27.4531C333.312 27.7135 333.859 28.0781 334.328 28.5469C334.797 29.0156 335.161 29.5625 335.422 30.1875C335.682 30.8125 335.812 31.4766 335.812 32.1797V64.0781C335.812 64.8073 335.682 65.4844 335.422 66.1094C335.161 66.7344 334.797 67.2812 334.328 67.75C333.885 68.1927 333.352 68.5443 332.727 68.8047C332.102 69.0651 331.424 69.1953 330.695 69.1953H284.914C284.185 69.1953 283.508 69.0651 282.883 68.8047C282.258 68.5443 281.724 68.1927 281.281 67.75C280.812 67.2812 280.448 66.7344 280.188 66.1094C279.927 65.4844 279.797 64.8073 279.797 64.0781ZM325.656 59.1719H289.953V55.0703C289.953 52.2318 290.344 49.8229 291.125 47.8438C291.932 45.8385 292.948 44.1719 294.172 42.8438C295.396 41.5156 296.737 40.474 298.195 39.7188C299.654 38.9635 301.034 38.4036 302.336 38.0391C303.664 37.6745 304.823 37.4531 305.812 37.375C306.828 37.2708 307.492 37.2188 307.805 37.2188H325.656V59.1719Z" fill="white"/>
<path d="M289.914 78.0781C289.914 80.8395 287.675 83.0781 284.914 83.0781C282.153 83.0781 279.758 80.8395 279.758 78.0781C279.758 75.3167 282.153 73.0781 284.914 73.0781C287.675 73.0781 289.914 75.3167 289.914 78.0781Z" fill="#3DDDDD"/>
<path d="M336.242 78.0781C336.242 80.8395 334.004 83.0781 331.242 83.0781C328.481 83.0781 326.086 80.8395 326.086 78.0781C326.086 75.3167 328.481 73.0781 331.242 73.0781C334.004 73.0781 336.242 75.3167 336.242 78.0781Z" fill="#3DDDDD"/>
<path fill-rule="evenodd" clip-rule="evenodd" d="M597.492 64.0781V55.0703C597.492 50.9818 596.789 47.2188 595.383 43.7812C593.977 40.3438 592.023 37.388 589.523 34.9141C587.023 32.4401 584.068 30.513 580.656 29.1328C577.245 27.7526 573.521 27.0625 569.484 27.0625H546.594C545.891 27.0625 545.227 27.1927 544.602 27.4531C543.977 27.7135 543.43 28.0781 542.961 28.5469C542.492 29.0156 542.128 29.5625 541.867 30.1875C541.607 30.8125 541.477 31.4766 541.477 32.1797V64.0781C541.477 64.8073 541.607 65.4844 541.867 66.1094C542.128 66.7344 542.492 67.2812 542.961 67.75C543.404 68.1927 543.938 68.5443 544.562 68.8047C545.188 69.0651 545.865 69.1953 546.594 69.1953H592.375C593.104 69.1953 593.781 69.0651 594.406 68.8047C595.031 68.5443 595.565 68.1927 596.008 67.75C596.477 67.2812 596.841 66.7344 597.102 66.1094C597.362 65.4844 597.492 64.8073 597.492 64.0781ZM551.633 59.1719H587.336V55.0703C587.336 52.2318 586.945 49.8229 586.164 47.8438C585.357 45.8385 584.341 44.1719 583.117 42.8438C581.893 41.5156 580.552 40.474 579.094 39.7188C577.635 38.9635 576.255 38.4036 574.953 38.0391C573.625 37.6745 572.466 37.4531 571.477 37.375C570.461 37.2708 569.797 37.2188 569.484 37.2188H551.633V59.1719Z" fill="white"/>
<path d="M587.375 78.0781C587.375 80.8395 589.614 83.0781 592.375 83.0781C595.136 83.0781 597.531 80.8395 597.531 78.0781C597.531 75.3167 595.136 73.0781 592.375 73.0781C589.614 73.0781 587.375 75.3167 587.375 78.0781Z" fill="#B123BD"/>
<path d="M541.047 78.0781C541.047 80.8395 543.285 83.0781 546.047 83.0781C548.808 83.0781 551.203 80.8395 551.203 78.0781C551.203 75.3167 548.808 73.0781 546.047 73.0781C543.285 73.0781 541.047 75.3167 541.047 78.0781Z" fill="#B123BD"/>
</svg>
