<svg width="640" height="640" viewBox="0 0 640 640" fill="none" xmlns="http://www.w3.org/2000/svg">
<path d="M379.409 424.738C379.409 435.928 370.345 445 359.163 445C347.982 445 338.285 435.928 338.285 424.738C338.285 413.547 347.982 404.476 359.163 404.476C370.345 404.476 379.409 413.547 379.409 424.738Z" fill="#3DDDDD"/>
<path d="M567 424.738C567 435.928 557.936 445 546.754 445C535.573 445 525.876 435.928 525.876 424.738C525.876 413.547 535.573 404.476 546.754 404.476C557.936 404.476 567 413.547 567 424.738Z" fill="#B123BD"/>
<path d="M299.817 424.263C299.817 427.218 299.29 429.962 298.236 432.494C297.181 435.027 295.705 437.243 293.807 439.143C292.014 440.937 289.853 442.362 287.322 443.417C284.791 444.472 282.049 445 279.097 445H130.732C126.936 445 122.824 444.578 118.395 443.734C114.072 442.784 109.748 441.359 105.425 439.46C101.207 437.56 97.1475 435.133 93.2459 432.178C89.3443 429.117 85.8646 425.477 82.8066 421.255C79.8541 416.928 77.4815 411.968 75.6889 406.375C73.8963 400.676 73 394.292 73 387.221V275.779C73 271.98 73.4218 267.917 74.2654 263.59C75.2144 259.158 76.6379 254.831 78.536 250.609C80.434 246.283 82.9121 242.167 85.97 238.262C89.028 234.358 92.6659 230.928 96.8838 227.973C101.207 224.912 106.163 222.485 111.752 220.691C117.341 218.897 123.667 218 130.732 218H451.82C468.164 218 483.243 220.797 497.057 226.39C510.87 231.983 522.839 239.792 532.962 249.818C543.085 259.844 550.993 271.821 556.687 285.752C562.381 299.682 565.228 314.931 565.228 331.5V368.858C565.228 371.813 564.701 374.557 563.647 377.09C562.592 379.623 561.116 381.839 559.218 383.738C557.425 385.533 555.264 386.957 552.733 388.013C550.202 389.068 547.461 389.596 544.508 389.596L354.418 389.279C349.146 389.279 344.298 385.394 341.607 381.296C338.916 377.198 338.443 374.135 338.443 368.858C338.443 366.009 338.97 363.371 340.024 360.944C341.079 358.411 342.555 356.195 344.453 354.295C346.246 352.395 348.408 350.918 350.938 349.863C353.469 348.702 356.211 348.121 359.163 348.121H524.104V331.5C524.104 319.997 522.522 310.235 519.359 302.215C516.09 294.089 511.978 287.335 507.021 281.953C502.065 276.57 496.635 272.349 490.73 269.289C484.825 266.228 479.236 263.959 473.964 262.482C468.586 261.004 463.894 260.107 459.887 259.791C455.774 259.369 453.085 259.158 451.82 259.158H130.732C125.355 259.158 121.242 260.582 118.395 263.432C115.548 266.281 114.124 270.502 114.124 276.096V387.221C114.124 392.498 115.548 396.613 118.395 399.568C121.348 402.418 125.46 403.842 130.732 403.842H258.693V352.237H149.238V310.763H279.097C282.049 310.763 284.791 311.343 287.322 312.504C289.853 313.56 292.014 315.037 293.807 316.937C295.705 318.836 297.181 321.052 298.236 323.585C299.29 326.012 299.817 328.651 299.817 331.5V424.263Z" fill="url(#paint0_linear_1116_61)"/>
<defs>
<linearGradient id="paint0_linear_1116_61" x1="320" y1="218" x2="320" y2="445" gradientUnits="userSpaceOnUse">
<stop stop-color="white"/>
<stop offset="1" stop-color="#4D4D4D" stop-opacity="0.61"/>
</linearGradient>
</defs>
</svg>
